<?xml version="1.0" encoding="utf-8"?>
<!-- Generator: Adobe Illustrator 15.1.0, SVG Export Plug-In . SVG Version: 6.00 Build 0)  -->
<!DOCTYPE svg PUBLIC "-//W3C//DTD SVG 1.1//EN" "http://www.w3.org/Graphics/SVG/1.1/DTD/svg11.dtd">
<svg version="1.1" id="Layer_1" xmlns="http://www.w3.org/2000/svg" xmlns:xlink="http://www.w3.org/1999/xlink" x="0px" y="0px"
	 width="93.055px" height="100px" viewBox="0 0 93.055 100" enable-background="new 0 0 93.055 100" xml:space="preserve">
<circle cx="20.833" cy="8.333" r="8.333"/>
<path d="M93.055,27.778V0H50v27.778v8.333h-3.279l-8.006-12.414l-0.013,0.01c-1.495-2.386-4.114-4.263-8.147-4.263H9.721
	C2.777,19.445,0,25,0,29.167V54.86c0,1.918,1.553,3.473,3.471,3.473s3.473-1.555,3.473-3.473V30.555h2.777V95.14
	c0,2.684,2.176,4.86,4.862,4.86c2.685,0,4.86-2.177,4.86-4.86V58.333h2.777V95.14c0,2.684,2.176,4.86,4.862,4.86
	c2.685,0,4.86-2.177,4.86-4.86V30.555h2.938l8.062,12.5H50V100h5.555V42.346c0.839-0.634,1.39-1.629,1.39-2.762
	s-0.551-2.128-1.39-2.763v-9.043H93.055z"/>
</svg>
